<?xml version="1.0" encoding="UTF-8" standalone="no"?>
<svg
   xmlns:dc="http://purl.org/dc/elements/1.1/"
   xmlns:cc="http://creativecommons.org/ns#"
   xmlns:rdf="http://www.w3.org/1999/02/22-rdf-syntax-ns#"
   xmlns:svg="http://www.w3.org/2000/svg"
   xmlns="http://www.w3.org/2000/svg"
   viewBox="0 0 1073.6212 765.35999"
   height="765.35999"
   width="1073.6212"
   xml:space="preserve"
   version="1.1"
   id="svg2"><metadata
     id="metadata8"><rdf:RDF><cc:Work
         rdf:about=""><dc:format>image/svg+xml</dc:format><dc:type
           rdf:resource="http://purl.org/dc/dcmitype/StillImage" /></cc:Work></rdf:RDF></metadata><defs
     id="defs6"><clipPath
       id="clipPath16"
       clipPathUnits="userSpaceOnUse"><path
         id="path18"
         d="m 0,612.288 858.897,0 L 858.897,0 0,0 0,612.288 Z" /></clipPath></defs><g
     transform="matrix(1.25,0,0,-1.25,0,765.36)"
     id="g10"><g
       id="g12"><g
         clip-path="url(#clipPath16)"
         id="g14"><g
           transform="translate(443.7363,296.5928)"
           id="g20"><path
             id="path22"
             style="fill:#4a4848;fill-opacity:1;fill-rule:nonzero;stroke:none"
             d="m 0,0 c -0.057,-0.068 -0.084,-0.125 -0.082,-0.125 0,0 0.002,0 0.002,0.001 -0.152,-0.195 -0.303,-0.4 -0.455,-0.605 -0.139,-0.19 -0.279,-0.379 -0.404,-0.542 -0.409,-0.491 -0.86,-0.981 -1.291,-1.453 -0.075,-0.073 -0.147,-0.158 -0.221,-0.243 -0.002,-0.003 -0.004,-0.005 -0.006,-0.007 -0.034,0 -0.066,0.001 -0.102,0.001 -0.05,0 -0.127,-0.015 -0.173,-0.03 -0.729,-0.222 -1.36,-0.414 -1.452,-0.428 -0.048,0.007 -0.269,0.068 -0.716,0.253 -0.534,0.223 -0.969,0.371 -1.356,0.371 -1.176,0 -1.978,-0.588 -2.385,-1.755 -0.127,-0.381 -0.175,-1.09 -0.217,-2.448 -1.906,-0.627 -3.902,-0.924 -6.059,-0.839 -1.32,0.039 -2.575,0.202 -3.68,0.466 -0.095,0.031 -0.205,0.051 -0.316,0.067 -0.034,0.004 -0.068,0.008 -0.124,0.024 l -0.151,0.044 c -0.259,0.075 -0.497,0.144 -0.67,0.16 -2.917,0.879 -5.465,2.417 -7.792,4.703 -3.48,3.402 -5.246,7.578 -5.246,12.412 0,2.279 0.412,4.398 1.182,6.335 0.282,-0.204 0.583,-0.384 0.92,-0.538 0.057,-0.018 0.089,-0.033 0.071,-0.021 0.159,-0.189 0.25,-0.537 0.251,-0.99 0.034,-0.502 -0.092,-0.976 -0.384,-1.45 -0.02,-0.033 -0.036,-0.068 -0.049,-0.105 -0.022,-0.07 -0.046,-0.15 -0.069,-0.231 l -0.065,-0.219 c -0.038,-0.151 -0.076,-0.264 -0.115,-0.379 -0.134,-0.403 -0.224,-0.815 -0.274,-1.281 0,-0.067 0,-0.207 -0.028,-0.297 -0.359,-1.481 -0.131,-2.947 0.658,-4.244 0.07,-0.175 0.187,-0.346 0.348,-0.506 l 0.373,-0.366 c 0.303,-0.293 0.655,-0.632 1.001,-1.005 0.171,-0.214 0.342,-0.386 0.513,-0.559 0.019,-0.018 0.06,-0.057 0.08,-0.072 1.168,-0.856 2.184,-2.562 3.021,-5.072 0.153,-0.462 0.349,-0.867 0.597,-1.24 0.612,-0.918 1.357,-1.634 2.284,-2.191 0.282,-0.163 0.625,-0.288 1.017,-0.288 0.606,0 1.327,0.3 2.108,1.23 0.449,0.533 1.186,1.409 1.368,1.587 0.713,0.278 1.341,0.531 1.769,0.768 0.235,0.1 0.423,0.222 0.597,0.336 l 0.245,0.165 c 0.497,0.442 0.75,0.903 0.75,1.371 0,1.116 -1.203,1.702 -2.151,2.059 -0.674,0.188 -1.606,0.452 -2.007,0.598 l 0.002,0.003 c -0.024,0.022 -0.111,0.104 -0.137,0.122 -0.043,0.029 -0.079,0.057 -0.112,0.084 -0.082,0.063 -0.159,0.121 -0.151,0.103 -0.265,0.207 -0.478,0.488 -0.663,0.846 -0.046,0.134 -0.153,0.391 -0.369,0.608 -0.461,0.461 -1.153,0.468 -1.633,0.437 -0.528,-0.038 -1.136,-0.01 -1.886,0.082 -0.573,0.038 -1.239,0.196 -1.979,0.469 -0.637,0.235 -1.111,0.598 -1.408,1.081 -0.329,0.535 -0.589,1.16 -0.779,1.883 -0.129,0.405 -0.173,0.979 0.654,1.855 0.065,0.08 0.095,0.119 0.29,0.052 0.241,-0.08 0.421,-0.207 0.602,-0.426 0.007,-0.008 0.013,-0.015 0.019,-0.021 0.04,-0.506 0.079,-0.978 0.125,-1.462 0.054,-0.262 0.157,-0.486 0.309,-0.666 0.08,-0.18 0.204,-0.335 0.358,-0.449 0.081,-0.081 0.146,-0.147 0.26,-0.302 0.191,-0.192 0.349,-0.27 0.536,-0.33 0.517,-0.162 0.93,-0.126 1.223,0.104 0.283,0.223 0.411,0.581 0.381,1.036 0,0.22 -0.068,0.455 -0.109,0.574 -0.015,0.043 -0.017,0.095 -0.023,0.155 -0.011,0.085 -0.023,0.178 -0.063,0.353 -0.235,0.659 -0.572,1.157 -0.949,1.433 -0.028,0.028 -0.053,0.053 -0.075,0.075 -0.026,0.316 -0.022,0.687 0.012,1.058 0.033,0.333 0.124,0.546 0.314,0.734 0.055,0.056 0.111,0.101 0.161,0.142 0.065,0.052 0.123,0.101 0.171,0.149 0.026,0.026 0.05,0.057 0.07,0.088 0.139,0.223 0.426,0.414 0.798,0.564 0.23,0.047 0.415,0.094 0.57,0.145 1.325,0.486 2.496,1.228 3.554,2.246 0.321,0.269 0.519,0.574 0.588,0.92 0.201,1.146 -0.201,1.785 -0.554,2.1 -0.207,0.21 -0.461,0.327 -0.794,0.31 -0.6,-0.08 -1.249,-0.12 -1.928,-0.12 -0.135,0 -0.265,0.026 -0.449,0.107 -0.132,0.037 -0.139,0.343 -0.087,0.673 0.094,0.041 0.205,0.106 0.299,0.212 0.028,-0.005 0.073,-0.014 0.148,-0.037 0.344,-0.115 0.687,-0.229 1.012,-0.351 l 0.299,-0.099 c 0.348,-0.239 0.761,-0.27 1.176,-0.095 0.059,0.026 0.112,0.062 0.157,0.107 0.114,0.115 0.231,0.32 0.229,0.482 0.032,0.423 0.213,0.507 0.361,0.547 0.326,0.075 0.512,0.063 0.591,0.026 0.074,-0.152 0.193,-0.308 0.389,-0.494 0.135,-0.091 0.303,-0.202 0.555,-0.283 0.256,-0.051 0.502,-0.053 0.738,-0.05 1.379,-0.062 2.05,0.6 2.369,1.167 0.344,0.609 0.442,1.167 0.291,1.662 -0.146,0.476 -0.51,0.863 -1.055,1.134 -0.599,0.351 -1.293,0.392 -2.18,0.131 -0.035,-0.011 -0.069,-0.025 -0.101,-0.043 -0.256,-0.142 -0.546,-0.179 -0.914,-0.11 -0.004,0 -0.01,10e-4 -0.016,0.002 -0.203,0.419 -0.705,0.917 -2.004,0.629 -0.009,-0.001 -0.146,-0.007 -0.155,-0.009 -1.409,-0.263 -1.885,0.146 -2.109,0.506 -0.001,0.023 -0.001,0.044 -0.001,0.045 -0.025,0.271 -0.014,0.562 0.006,0.846 2.139,0.9 4.495,1.366 7.015,1.366 3.71,0 7.061,-1.002 9.979,-2.95 -0.336,-0.205 -0.604,-0.405 -0.785,-0.595 -0.153,-0.099 -0.301,-0.202 -0.41,-0.316 -0.795,-0.636 -1.053,-1.483 -0.717,-2.523 0.142,-0.286 0.353,-0.467 0.557,-0.618 0.318,-0.199 0.349,-0.304 0.373,-0.398 0.019,-0.064 0.021,-0.095 0.023,-0.096 -0.006,-0.009 -0.027,-0.035 -0.045,-0.05 -0.215,-0.053 -0.414,-0.153 -0.584,-0.238 -0.578,-0.262 -0.935,-0.62 -1.066,-1.08 -0.049,-0.192 -0.1,-0.392 -0.1,-0.55 -0.029,-0.521 -0.299,-0.918 -0.836,-1.22 -0.799,-0.48 -1.117,-1.236 -0.892,-2.129 0.07,-0.284 0.222,-0.503 0.49,-0.705 0.715,-0.495 1.443,-0.563 2.133,-0.219 0.248,0.1 0.47,0.249 0.666,0.443 0.632,0.633 1.109,1.295 1.476,2.043 0.83,0.439 1.811,0.509 2.92,0.342 0.082,-0.139 0.162,-0.268 0.238,-0.387 l 0.063,-0.095 c -0.006,-0.006 -0.014,-0.012 -0.022,-0.018 -0.048,-0.043 -0.099,-0.089 -0.15,-0.14 -0.158,-0.159 -0.32,-0.27 -0.537,-0.364 -0.029,-0.016 -0.059,-0.031 -0.027,-0.031 -0.838,-0.052 -1.52,-0.318 -1.957,-0.757 -0.04,-0.032 -0.112,-0.079 -0.208,-0.144 -0.23,-0.137 -0.492,-0.295 -0.677,-0.532 -0.035,-0.035 -0.1,-0.101 -0.172,-0.144 -0.17,-0.113 -0.281,-0.225 -0.379,-0.327 -0.814,-0.692 -1.531,-1.511 -2.17,-2.508 -0.172,-0.4 -0.25,-0.755 -0.246,-1.242 0.039,-0.843 0.08,-1.685 0.08,-2.528 0,-0.901 0.527,-1.545 1.523,-1.82 0.12,-0.024 0.237,-0.036 0.356,-0.048 0.088,-0.009 0.178,-0.017 0.307,-0.041 0.664,-0.079 1.412,-0.094 2.296,-0.044 0.491,0.034 0.852,-0.033 1.172,-0.22 C -2.248,5.24 -2.232,5.198 -2.215,5.155 -2.186,5.082 -2.15,5.001 -2.135,4.938 -1.803,3.38 -0.797,2.414 0.699,2.22 0.721,2.218 0.742,2.216 0.764,2.216 c 0.015,0 0.031,10e-4 0.047,0.002 0.185,0.016 0.378,0.094 0.576,0.2 C 0.993,1.589 0.535,0.786 0,0 m -7.846,-6.618 c 0.03,0.824 0.072,1.496 0.151,1.735 0.263,0.754 0.695,1.076 1.439,1.076 0.236,0 0.643,-0.156 0.971,-0.293 0.787,-0.329 0.996,-0.329 1.064,-0.329 0.039,0 0.085,0.005 0.135,0.012 -1.201,-0.938 -2.461,-1.661 -3.76,-2.201 M -27.645,22.36 c 1.405,1.404 2.981,2.512 4.685,3.339 0,-0.144 -0.008,-0.292 0.005,-0.428 0,-0.115 0,-0.318 0.129,-0.493 0.569,-0.947 1.631,-1.279 3.071,-1.005 0.097,0 0.24,0 0.399,0.062 0.679,0.133 0.755,-0.074 0.788,-0.176 0.05,-0.151 0.227,-0.501 0.701,-0.501 l 0.017,0 c 0.563,-0.1 1.079,-0.037 1.524,0.193 0.588,0.167 1.005,0.151 1.373,-0.065 0.32,-0.159 0.513,-0.343 0.575,-0.547 0.068,-0.222 -10e-4,-0.517 -0.205,-0.88 -0.269,-0.476 -0.749,-0.699 -1.475,-0.658 -0.214,0 -0.391,-0.004 -0.505,0.015 -0.062,0.02 -0.163,0.088 -0.179,0.088 l -10e-4,0 c -0.09,0.091 -0.12,0.151 -0.13,0.179 -0.019,0.059 -0.049,0.114 -0.088,0.161 -0.497,0.595 -1.343,0.397 -1.637,0.329 -0.582,-0.159 -0.958,-0.574 -1.08,-1.206 -0.021,0.007 -0.037,0.02 -0.055,0.034 -0.047,0.038 -0.1,0.066 -0.156,0.085 l -0.355,0.117 c -0.317,0.119 -0.672,0.238 -1.119,0.387 -0.44,0.126 -0.804,0.056 -1.071,-0.21 -0.013,-0.013 -0.024,-0.026 -0.035,-0.039 -0.036,-0.015 -0.087,-0.035 -0.087,-0.035 -0.176,-0.089 -0.295,-0.208 -0.386,-0.384 -0.019,-0.039 -0.034,-0.081 -0.044,-0.125 -0.308,-1.469 0.352,-1.882 0.682,-1.962 0.232,-0.116 0.511,-0.178 0.804,-0.178 0.723,0 1.417,0.044 2.034,0.086 0.268,-0.241 0.355,-0.646 0.259,-1.19 -0.021,-0.106 -0.103,-0.22 -0.272,-0.362 -0.981,-0.943 -2.038,-1.614 -3.215,-2.046 -0.11,-0.036 -0.258,-0.071 -0.521,-0.132 -0.638,-0.246 -1.063,-0.542 -1.327,-0.931 -0.021,-0.018 -0.042,-0.035 -0.066,-0.054 -0.073,-0.059 -0.154,-0.127 -0.234,-0.207 -0.356,-0.354 -0.546,-0.781 -0.603,-1.348 -0.045,-0.489 -0.044,-0.982 -0.002,-1.333 0,-0.251 0.157,-0.406 0.408,-0.648 0.266,-0.199 0.494,-0.55 0.64,-0.943 0.015,-0.078 0.024,-0.148 0.031,-0.211 0.014,-0.114 0.029,-0.232 0.069,-0.352 0.037,-0.108 0.056,-0.213 0.057,-0.286 0.008,-0.125 -0.004,-0.191 0.001,-0.209 -0.037,-0.004 -0.13,-0.002 -0.301,0.051 -0.057,0.018 -0.071,0.026 -0.072,0.009 -0.101,0.153 -0.2,0.256 -0.353,0.41 -0.025,0.024 -0.099,0.115 -0.128,0.135 -0.025,0.074 -0.066,0.141 -0.121,0.197 -0.055,0.053 -0.092,0.134 -0.106,0.189 -0.041,0.456 -0.082,0.952 -0.122,1.451 0,0.237 -0.109,0.453 -0.293,0.588 -0.288,0.327 -0.608,0.543 -1.004,0.674 -0.693,0.234 -1.129,-0.068 -1.352,-0.337 -0.884,-0.934 -1.166,-1.857 -0.867,-2.797 0.208,-0.794 0.506,-1.509 0.887,-2.129 0.418,-0.676 1.063,-1.179 1.914,-1.494 0.83,-0.305 1.59,-0.483 2.23,-0.526 0.787,-0.098 1.457,-0.125 2.05,-0.085 0.436,0.031 0.731,-0.02 0.856,-0.144 0.062,-0.062 0.108,-0.159 0.156,-0.287 0.175,-0.348 0.465,-0.858 0.971,-1.251 0.025,-0.02 0.119,-0.088 0.148,-0.102 0.052,-0.042 0.106,-0.079 0.096,-0.065 l 0.125,-0.124 c 0.048,-0.048 0.105,-0.085 0.166,-0.11 0.03,-0.019 0.063,-0.035 0.096,-0.047 0.323,-0.121 0.976,-0.317 2.074,-0.621 0.972,-0.369 1.464,-0.743 1.464,-1.111 0,-0.165 -0.147,-0.387 -0.34,-0.569 -0.068,-0.041 -0.136,-0.086 -0.207,-0.133 -0.127,-0.084 -0.265,-0.177 -0.481,-0.272 -0.434,-0.237 -1.058,-0.485 -1.769,-0.763 -0.033,-0.012 -0.065,-0.029 -0.095,-0.049 -0.158,-0.105 -0.387,-0.354 -1.602,-1.798 -1.014,-1.206 -1.627,-0.854 -1.852,-0.724 -0.791,0.476 -1.432,1.092 -1.96,1.885 -0.201,0.302 -0.354,0.621 -0.481,1.002 -0.903,2.71 -2.04,4.581 -3.34,5.532 -0.146,0.147 -0.294,0.294 -0.465,0.506 -0.385,0.415 -0.749,0.767 -1.062,1.072 l -0.363,0.354 c -0.09,0.09 -0.12,0.152 -0.13,0.18 -0.012,0.036 -0.028,0.071 -0.048,0.104 -0.676,1.089 -0.865,2.275 -0.575,3.481 0.069,0.202 0.069,0.418 0.066,0.52 0.038,0.341 0.114,0.683 0.225,1.017 0.046,0.135 0.09,0.272 0.126,0.418 l 0.11,0.368 c 0.375,0.63 0.542,1.296 0.497,1.95 0,0.678 -0.171,1.236 -0.521,1.64 -0.166,0.166 -0.339,0.239 -0.434,0.267 -0.315,0.145 -0.602,0.343 -0.88,0.567 0.858,1.812 2.049,3.466 3.663,5.04 M -0.094,19.946 C 1.975,17.083 3.023,13.746 3.023,10.027 3.023,8.597 2.891,7.282 2.631,6.052 2.541,5.733 2.451,5.412 2.424,5.178 2.392,5.064 2.35,4.957 2.314,4.845 2.23,4.723 2.145,4.597 2.063,4.465 1.324,3.448 0.902,3.257 0.76,3.221 -0.287,3.38 -0.916,4.011 -1.16,5.164 -1.191,5.29 -1.242,5.417 -1.287,5.53 L -1.361,5.719 C -1.441,5.88 -1.531,5.97 -1.586,6.022 -1.611,6.047 -1.639,6.068 -1.668,6.087 -2.189,6.419 -2.777,6.548 -3.5,6.496 -4.318,6.452 -5.012,6.465 -5.574,6.529 c -0.123,0.025 -0.244,0.037 -0.365,0.05 -0.088,0.008 -0.174,0.017 -0.225,0.025 -0.668,0.186 -0.754,0.551 -0.754,0.848 0,0.859 -0.041,1.716 -0.084,2.616 0,0.263 0.049,0.482 0.127,0.683 0.547,0.843 1.199,1.588 1.971,2.247 0.117,0.118 0.174,0.173 0.203,0.196 0.156,0.079 0.279,0.202 0.414,0.342 0.111,0.138 0.267,0.232 0.51,0.38 0.164,0.11 0.259,0.177 0.326,0.243 0.277,0.278 0.74,0.444 1.308,0.477 0.151,0 0.274,0.056 0.405,0.124 0.304,0.131 0.572,0.314 0.82,0.562 l 0.106,0.097 c 0.093,0.083 0.199,0.176 0.32,0.363 0.152,0.304 0.058,0.585 0.027,0.677 -0.012,0.034 -0.027,0.066 -0.045,0.098 l -0.16,0.256 c -0.092,0.145 -0.191,0.305 -0.293,0.481 -0.019,0.037 -0.047,0.071 -0.076,0.102 -0.068,0.069 -0.24,0.223 -0.383,0.224 -0.439,0.087 -0.932,0.134 -1.428,0.134 -0.896,0 -1.683,-0.198 -2.404,-0.605 -0.039,-0.021 -0.074,-0.047 -0.105,-0.078 -0.073,-0.071 -0.149,-0.156 -0.227,-0.31 -0.299,-0.633 -0.715,-1.212 -1.271,-1.77 -0.1,-0.098 -0.211,-0.174 -0.37,-0.239 -0.396,-0.197 -0.74,-0.158 -1.136,0.118 -0.09,0.067 -0.098,0.101 -0.108,0.138 -0.117,0.467 0.014,0.774 0.426,1.021 0.822,0.463 1.283,1.164 1.334,2.056 0,0.062 0.041,0.227 0.065,0.32 0.052,0.186 0.308,0.335 0.542,0.443 0.141,0.07 0.276,0.137 0.467,0.193 0.616,0.274 0.852,0.786 0.664,1.328 -0.086,0.5 -0.504,0.813 -0.775,0.981 -0.121,0.091 -0.188,0.161 -0.197,0.168 -0.184,0.579 -0.059,0.988 0.459,1.405 0.097,0.098 0.197,0.162 0.373,0.291 0.246,0.245 0.59,0.481 1.059,0.729 0.73,-0.568 1.319,-1.076 1.825,-1.583 0.823,-0.823 1.543,-1.639 2.135,-2.414 m 1.043,0.775 c -0.644,0.845 -1.385,1.682 -2.26,2.557 -0.591,0.593 -1.271,1.179 -2.148,1.85 -3.316,2.455 -7.178,3.699 -11.477,3.699 -2.778,0 -5.381,-0.52 -7.73,-1.546 -2.167,-0.91 -4.152,-2.257 -5.892,-3.997 -1.79,-1.746 -3.164,-3.671 -4.083,-5.721 -1.031,-2.275 -1.554,-4.811 -1.554,-7.536 0,-5.197 1.897,-9.686 5.636,-13.34 2.479,-2.436 5.203,-4.078 8.423,-5.041 0.205,-0.028 0.386,-0.084 0.583,-0.141 l 0.131,-0.037 c 0.097,-0.033 0.211,-0.054 0.326,-0.071 0.033,-0.004 0.068,-0.007 0.144,-0.029 1.242,-0.3 2.586,-0.473 3.993,-0.515 0.243,-0.009 0.485,-0.013 0.725,-0.013 l 10e-4,0 c 2.11,0 4.153,0.337 6.075,1.004 2.297,0.808 4.47,2.183 6.476,4.1 0.073,0.074 0.147,0.159 0.219,0.243 0.051,0.061 0.104,0.122 0.172,0.192 0.463,0.506 0.928,1.012 1.365,1.536 0.145,0.189 0.291,0.387 0.438,0.585 0.144,0.195 0.289,0.392 0.379,0.518 0.074,0.073 0.119,0.146 0.146,0.197 0.006,0.007 0.01,0.014 0.014,0.02 1.199,1.753 2.056,3.581 2.64,5.673 0.038,0.262 0.116,0.525 0.202,0.83 0.289,1.364 0.429,2.767 0.429,4.289 0,3.997 -1.131,7.591 -3.373,10.694" /></g><g
           transform="translate(443.6426,316.5391)"
           id="g24"><path
             id="path26"
             style="fill:#ffffff;fill-opacity:1;fill-rule:nonzero;stroke:none"
             d="m 0,0 c 2.068,-2.863 3.117,-6.2 3.117,-9.919 0,-1.431 -0.133,-2.745 -0.392,-3.976 -0.09,-0.318 -0.18,-0.639 -0.207,-0.874 -0.032,-0.113 -0.075,-0.22 -0.11,-0.333 -0.084,-0.122 -0.17,-0.248 -0.252,-0.379 -0.738,-1.017 -1.16,-1.208 -1.302,-1.245 -1.047,0.16 -1.676,0.79 -1.92,1.944 -0.032,0.126 -0.082,0.253 -0.127,0.366 l -0.075,0.188 c -0.08,0.162 -0.169,0.251 -0.224,0.304 -0.026,0.025 -0.053,0.046 -0.082,0.065 -0.522,0.332 -1.11,0.461 -1.832,0.409 -0.819,-0.044 -1.512,-0.031 -2.074,0.033 -0.124,0.024 -0.245,0.037 -0.366,0.05 -0.088,0.008 -0.174,0.016 -0.224,0.024 -0.668,0.187 -0.754,0.552 -0.754,0.849 0,0.858 -0.041,1.716 -0.084,2.616 0,0.263 0.049,0.482 0.127,0.683 0.547,0.842 1.199,1.588 1.97,2.247 0.118,0.118 0.174,0.173 0.204,0.196 0.156,0.079 0.279,0.202 0.414,0.342 0.111,0.138 0.267,0.231 0.509,0.38 0.164,0.11 0.26,0.176 0.327,0.243 0.277,0.277 0.74,0.443 1.308,0.476 0.151,0 0.274,0.057 0.404,0.124 0.305,0.131 0.573,0.315 0.821,0.563 l 0.105,0.097 c 0.094,0.083 0.199,0.175 0.321,0.363 0.152,0.304 0.058,0.585 0.027,0.677 -0.012,0.034 -0.027,0.066 -0.045,0.097 l -0.16,0.257 c -0.092,0.145 -0.192,0.305 -0.293,0.481 -0.02,0.037 -0.047,0.071 -0.076,0.101 -0.069,0.07 -0.241,0.224 -0.383,0.225 -0.44,0.087 -0.932,0.134 -1.428,0.134 -0.896,0 -1.683,-0.199 -2.404,-0.605 -0.039,-0.021 -0.074,-0.048 -0.106,-0.078 -0.072,-0.071 -0.148,-0.156 -0.226,-0.311 -0.299,-0.632 -0.715,-1.211 -1.272,-1.769 -0.099,-0.099 -0.211,-0.174 -0.369,-0.239 -0.396,-0.198 -0.74,-0.159 -1.137,0.118 -0.089,0.066 -0.097,0.1 -0.107,0.138 -0.117,0.466 0.014,0.774 0.426,1.021 0.822,0.463 1.283,1.164 1.334,2.056 0,0.062 0.041,0.226 0.064,0.32 0.053,0.186 0.309,0.335 0.543,0.442 0.141,0.071 0.276,0.138 0.467,0.194 0.615,0.274 0.852,0.786 0.664,1.328 -0.086,0.5 -0.504,0.812 -0.775,0.98 -0.121,0.092 -0.188,0.161 -0.198,0.168 -0.183,0.579 -0.058,0.989 0.459,1.406 0.098,0.098 0.198,0.162 0.373,0.291 0.247,0.245 0.59,0.481 1.06,0.729 C -3.23,3.429 -2.642,2.921 -2.135,2.414 -1.312,1.591 -0.592,0.774 0,0" /></g><g
           transform="translate(416.0913,318.9531)"
           id="g28"><path
             id="path30"
             style="fill:#ffffff;fill-opacity:1;fill-rule:nonzero;stroke:none"
             d="M 0,0 C 1.405,1.404 2.981,2.511 4.685,3.339 4.685,3.194 4.677,3.047 4.69,2.91 4.69,2.796 4.69,2.593 4.819,2.418 5.388,1.471 6.45,1.139 7.89,1.413 c 0.097,0 0.24,0 0.399,0.062 C 8.968,1.607 9.044,1.4 9.077,1.299 9.127,1.147 9.304,0.798 9.778,0.798 l 0.017,0 c 0.563,-0.101 1.079,-0.037 1.524,0.192 0.588,0.167 1.005,0.152 1.373,-0.064 0.32,-0.159 0.513,-0.343 0.575,-0.547 0.068,-0.223 -10e-4,-0.518 -0.205,-0.88 -0.269,-0.477 -0.749,-0.699 -1.475,-0.658 -0.214,0 -0.391,-0.004 -0.505,0.014 -0.061,0.021 -0.163,0.088 -0.179,0.088 l -0.001,0 c -0.09,0.091 -0.12,0.152 -0.13,0.18 -0.019,0.059 -0.049,0.113 -0.088,0.16 -0.496,0.596 -1.343,0.398 -1.637,0.329 C 8.465,-0.546 8.089,-0.961 7.967,-1.594 7.946,-1.586 7.93,-1.573 7.912,-1.56 7.865,-1.521 7.812,-1.493 7.756,-1.475 L 7.401,-1.357 C 7.084,-1.238 6.729,-1.119 6.282,-0.971 5.842,-0.845 5.478,-0.914 5.211,-1.181 5.198,-1.193 5.187,-1.206 5.176,-1.22 5.14,-1.234 5.089,-1.254 5.089,-1.254 4.913,-1.344 4.794,-1.462 4.703,-1.639 4.684,-1.678 4.669,-1.72 4.659,-1.764 4.351,-3.232 5.011,-3.646 5.341,-3.726 c 0.232,-0.116 0.511,-0.177 0.805,-0.177 0.722,0 1.416,0.044 2.033,0.086 C 8.447,-4.059 8.534,-4.463 8.438,-5.008 8.417,-5.113 8.335,-5.228 8.166,-5.369 7.185,-6.312 6.128,-6.983 4.951,-7.415 4.841,-7.451 4.693,-7.486 4.43,-7.547 3.792,-7.793 3.367,-8.09 3.103,-8.479 3.082,-8.496 3.061,-8.514 3.037,-8.532 2.964,-8.592 2.883,-8.659 2.803,-8.739 2.447,-9.094 2.257,-9.521 2.2,-10.087 2.155,-10.576 2.156,-11.069 2.198,-11.42 c 0,-0.251 0.157,-0.406 0.408,-0.648 0.266,-0.2 0.494,-0.55 0.64,-0.944 0.015,-0.077 0.024,-0.147 0.031,-0.211 0.014,-0.113 0.029,-0.231 0.069,-0.351 0.037,-0.109 0.056,-0.213 0.057,-0.286 0.008,-0.125 -0.004,-0.192 10e-4,-0.209 -0.037,-0.004 -0.13,-0.002 -0.3,0.05 -0.058,0.019 -0.072,0.027 -0.073,0.009 -0.101,0.154 -0.2,0.257 -0.353,0.41 -0.025,0.025 -0.099,0.116 -0.128,0.135 -0.025,0.074 -0.066,0.142 -0.121,0.197 -0.055,0.054 -0.092,0.134 -0.106,0.19 -0.041,0.456 -0.082,0.952 -0.122,1.451 0,0.236 -0.109,0.452 -0.293,0.588 -0.288,0.327 -0.608,0.543 -1.004,0.674 -0.693,0.233 -1.129,-0.069 -1.352,-0.337 -0.884,-0.935 -1.166,-1.858 -0.867,-2.797 0.208,-0.794 0.506,-1.51 0.887,-2.129 0.418,-0.677 1.063,-1.18 1.914,-1.494 0.83,-0.306 1.59,-0.483 2.23,-0.526 0.787,-0.098 1.457,-0.125 2.05,-0.085 0.436,0.031 0.731,-0.02 0.856,-0.144 0.062,-0.062 0.108,-0.159 0.156,-0.287 0.175,-0.349 0.465,-0.858 0.971,-1.251 0.025,-0.021 0.119,-0.088 0.148,-0.103 0.052,-0.042 0.106,-0.079 0.096,-0.064 l 0.125,-0.124 c 0.048,-0.048 0.105,-0.085 0.166,-0.11 0.03,-0.019 0.063,-0.036 0.096,-0.047 0.323,-0.121 0.976,-0.318 2.074,-0.621 0.972,-0.37 1.464,-0.744 1.464,-1.112 0,-0.165 -0.147,-0.386 -0.34,-0.568 -0.068,-0.041 -0.136,-0.086 -0.207,-0.133 -0.127,-0.084 -0.265,-0.178 -0.481,-0.272 -0.434,-0.238 -1.058,-0.486 -1.769,-0.763 -0.033,-0.013 -0.065,-0.029 -0.095,-0.05 -0.158,-0.104 -0.387,-0.353 -1.602,-1.798 -1.014,-1.206 -1.627,-0.853 -1.852,-0.723 -0.791,0.475 -1.432,1.091 -1.96,1.884 -0.201,0.302 -0.354,0.622 -0.481,1.002 -0.903,2.71 -2.04,4.581 -3.34,5.533 -0.146,0.147 -0.294,0.294 -0.465,0.505 -0.385,0.416 -0.749,0.768 -1.062,1.073 l -0.363,0.353 c -0.09,0.091 -0.12,0.153 -0.13,0.181 -0.012,0.036 -0.028,0.07 -0.048,0.103 -0.676,1.089 -0.865,2.276 -0.575,3.482 0.069,0.202 0.069,0.418 0.066,0.519 0.038,0.341 0.114,0.684 0.225,1.018 0.046,0.135 0.09,0.271 0.126,0.418 l 0.11,0.367 c 0.375,0.631 0.542,1.297 0.497,1.95 0,0.679 -0.171,1.237 -0.521,1.641 -0.166,0.166 -0.339,0.238 -0.434,0.267 -0.315,0.145 -0.602,0.342 -0.88,0.567 C -2.805,-3.229 -1.614,-1.575 0,0" /></g><g
           transform="translate(435.8906,289.9746)"
           id="g32"><path
             id="path34"
             style="fill:#ffffff;fill-opacity:1;fill-rule:nonzero;stroke:none"
             d="m 0,0 c 0.029,0.824 0.071,1.496 0.15,1.735 0.264,0.754 0.696,1.077 1.44,1.077 0.236,0 0.642,-0.157 0.971,-0.293 0.787,-0.33 0.996,-0.33 1.064,-0.33 0.039,0 0.085,0.005 0.135,0.012 C 2.559,1.263 1.299,0.54 0,0" /></g></g></g></g></svg>