<?xml version="1.0" encoding="UTF-8" standalone="no"?>
<svg
   xmlns:dc="http://purl.org/dc/elements/1.1/"
   xmlns:cc="http://creativecommons.org/ns#"
   xmlns:rdf="http://www.w3.org/1999/02/22-rdf-syntax-ns#"
   xmlns:svg="http://www.w3.org/2000/svg"
   xmlns="http://www.w3.org/2000/svg"
   viewBox="0 0 1073.6212 765.35999"
   height="765.35999"
   width="1073.6212"
   xml:space="preserve"
   version="1.1"
   id="svg2"><metadata
     id="metadata8"><rdf:RDF><cc:Work
         rdf:about=""><dc:format>image/svg+xml</dc:format><dc:type
           rdf:resource="http://purl.org/dc/dcmitype/StillImage" /></cc:Work></rdf:RDF></metadata><defs
     id="defs6"><clipPath
       id="clipPath16"
       clipPathUnits="userSpaceOnUse"><path
         id="path18"
         d="m 0,612.288 858.897,0 L 858.897,0 0,0 0,612.288 Z" /></clipPath></defs><g
     transform="matrix(1.25,0,0,-1.25,0,765.36)"
     id="g10"><g
       id="g12"><g
         clip-path="url(#clipPath16)"
         id="g14"><g
           transform="translate(443.6006,299.3428)"
           id="g20"><path
             id="path22"
             style="fill:#ffffff;fill-opacity:1;fill-rule:nonzero;stroke:none"
             d="m 0,0 c -0.724,-2.291 -1.65,-4.534 -2.833,-6.858 -1.418,-2.755 -2.883,-4.492 -4.479,-5.31 -1.211,-0.625 -3.314,-0.941 -6.251,-0.941 -2.689,0 -4.809,0.275 -6.136,0.798 -1.634,0.623 -3.28,1.981 -4.893,4.037 -1.733,2.205 -3.073,4.179 -3.977,5.857 -1.081,2.124 -1.607,4.101 -1.607,6.046 0,3.289 1.017,6.053 3.027,8.22 2.009,2.207 4.568,3.326 7.605,3.326 0.461,0 1.389,-0.105 3.165,-0.598 0.391,-0.13 0.78,-0.218 1.171,-0.304 0.02,-0.005 0.069,-0.008 0.114,-0.01 0.061,-0.015 0.121,-0.027 0.182,-0.037 0.037,-0.006 0.075,-0.01 0.187,-0.041 0.24,-0.04 0.44,-0.08 0.639,-0.12 0.019,-0.004 0.037,-0.007 0.056,-0.009 0.018,-0.002 0.035,-0.003 0.052,-0.003 0.12,-0.003 0.129,0 0.174,-0.015 0.051,-0.017 0.104,-0.026 0.158,-0.026 l 0.053,0.005 c 0.327,-0.047 0.676,-0.047 0.986,-0.047 0.079,0 0.176,0.022 0.247,0.057 0.025,0.007 0.058,0.015 0.094,0.026 l 0.021,0 c 0.021,10e-4 0.045,10e-4 0.067,0.004 0.029,0.003 0.057,0.008 0.083,0.016 l 0.001,0 c 0.013,0.004 0.025,0.008 0.035,0.012 l 0.622,0.217 c 0.577,0.199 1.233,0.427 1.956,0.698 1.178,0.446 2.46,0.673 3.81,0.673 2.195,0 3.957,-0.726 5.234,-2.158 C 0.83,12.095 1.472,10.097 1.472,7.575 1.472,5.478 0.978,2.932 0,0" /></g><g
           transform="translate(438.4316,312.1309)"
           id="g24"><path
             id="path26"
             style="fill:#4a4848;fill-opacity:1;fill-rule:nonzero;stroke:none"
             d="m 0,0 c -0.305,0 -0.549,-0.123 -0.76,-0.268 -0.31,-0.172 -0.446,-0.318 -0.446,-0.46 0,-0.843 0.345,-1.751 1.026,-2.698 0.719,-0.932 1.493,-1.411 2.295,-1.411 0.309,0 0.553,0.072 0.655,0.193 0.099,0.116 0.257,0.415 0.257,1.176 0,0.724 -0.361,1.492 -1.075,2.281 -0.263,0.3 -0.568,0.528 -0.834,0.718 L 1.106,-0.46 C 0.66,-0.121 0.301,0 0,0 m 2.115,-5.837 c -1.128,0 -2.17,0.61 -3.095,1.815 -0.817,1.132 -1.226,2.237 -1.226,3.294 0,0.369 0.161,0.895 0.925,1.312 C -0.367,1.213 0.652,1.14 1.706,0.34 2.038,0.102 2.389,-0.168 2.699,-0.523 3.578,-1.495 4.027,-2.488 4.027,-3.468 4.027,-4.306 3.865,-4.902 3.533,-5.29 3.235,-5.646 2.744,-5.837 2.115,-5.837" /></g><g
           transform="translate(443.6006,299.3428)"
           id="g28"><path
             id="path30"
             style="fill:#4a4848;fill-opacity:1;fill-rule:nonzero;stroke:none"
             d="m 0,0 c -0.724,-2.291 -1.65,-4.534 -2.833,-6.858 -1.418,-2.755 -2.883,-4.492 -4.479,-5.31 -1.211,-0.625 -3.314,-0.941 -6.251,-0.941 -2.689,0 -4.809,0.275 -6.136,0.798 -1.634,0.623 -3.28,1.981 -4.893,4.037 -1.733,2.205 -3.073,4.179 -3.977,5.857 -1.081,2.124 -1.607,4.101 -1.607,6.046 0,3.289 1.017,6.053 3.027,8.22 2.009,2.207 4.568,3.326 7.605,3.326 0.461,0 1.389,-0.105 3.165,-0.598 0.391,-0.13 0.78,-0.218 1.171,-0.304 0.02,-0.005 0.069,-0.008 0.114,-0.01 0.061,-0.015 0.121,-0.027 0.182,-0.037 0.037,-0.006 0.075,-0.01 0.187,-0.041 0.24,-0.04 0.44,-0.08 0.639,-0.12 0.019,-0.004 0.037,-0.007 0.056,-0.009 0.018,-0.002 0.035,-0.003 0.052,-0.003 0.12,-0.003 0.129,0 0.174,-0.015 0.051,-0.017 0.104,-0.026 0.158,-0.026 l 0.053,0.005 c 0.327,-0.047 0.676,-0.047 0.986,-0.047 0.079,0 0.176,0.022 0.247,0.057 0.025,0.007 0.058,0.015 0.094,0.026 l 0.021,0 c 0.021,10e-4 0.045,10e-4 0.067,0.004 0.029,0.003 0.057,0.008 0.083,0.016 l 0.001,0 c 0.013,0.004 0.025,0.008 0.035,0.012 l 0.622,0.217 c 0.577,0.199 1.233,0.427 1.956,0.698 1.178,0.446 2.46,0.673 3.81,0.673 2.195,0 3.957,-0.726 5.234,-2.158 C 0.83,12.095 1.472,10.097 1.472,7.575 1.472,5.478 0.978,2.932 0,0 m -13.152,18.254 c 0.004,0.029 0.006,0.058 0.006,0.086 0.017,0.038 0.029,0.079 0.036,0.122 0.128,0.812 0.289,1.512 0.482,2.091 0.645,2.085 1.496,3.703 2.533,4.814 0.526,-0.11 0.93,-0.545 1.209,-1.299 -1.404,-1.929 -2.412,-3.922 -3.07,-6.065 -0.342,-0.95 -0.587,-1.967 -0.73,-3.029 -0.004,-10e-4 -0.01,-0.003 -0.015,-0.004 -0.229,0 -0.484,0.002 -0.761,0.034 0.049,1.168 0.155,2.283 0.31,3.25 m -5.56,0.447 c -1.535,0.262 -2.712,1.121 -3.586,2.603 -0.55,1.06 -0.817,2.235 -0.817,3.592 0,0.23 0.006,0.412 0.014,0.556 1.221,-0.666 2.971,-1.46 5.386,-2.444 1.775,-1.014 2.854,-2.414 3.213,-4.166 -1.309,-0.383 -2.719,-0.432 -4.21,-0.141 M 0.31,14.18 c -1.476,1.654 -3.489,2.493 -5.981,2.493 -1.472,0 -2.873,-0.249 -4.162,-0.738 -0.656,-0.246 -1.258,-0.456 -1.794,-0.642 0.138,0.83 0.344,1.629 0.618,2.394 0.656,2.133 1.664,4.094 3.08,5.997 0.096,0.128 0.125,0.294 0.077,0.446 -0.56,1.805 -1.618,2.226 -2.407,2.262 -0.141,0 -0.276,-0.047 -0.376,-0.146 -1.229,-1.229 -2.221,-3.045 -2.945,-5.388 -0.082,-0.245 -0.159,-0.512 -0.231,-0.799 -0.581,1.574 -1.733,2.859 -3.467,3.845 -2.857,1.169 -4.736,2.043 -5.913,2.75 -0.237,0.142 -0.543,0.066 -0.685,-0.172 -0.172,-0.284 -0.239,-0.729 -0.239,-1.586 0,-1.521 0.304,-2.847 0.942,-4.076 1.047,-1.775 2.45,-2.79 4.281,-3.102 1.639,-0.319 3.208,-0.263 4.675,0.165 -0.115,-0.843 -0.196,-1.772 -0.24,-2.735 -0.009,10e-4 -0.018,0.003 -0.027,0.004 -0.088,0.029 -0.176,0.046 -0.264,0.06 -0.037,0.006 -0.074,0.011 -0.111,0.023 -0.036,0.012 -0.114,0.02 -0.176,0.023 -0.342,0.076 -0.686,0.154 -1.052,0.275 -1.533,0.425 -2.696,0.642 -3.457,0.642 -3.33,0 -6.137,-1.229 -8.342,-3.65 -2.183,-2.354 -3.29,-5.347 -3.29,-8.896 0,-2.106 0.562,-4.233 1.721,-6.51 0.937,-1.738 2.309,-3.761 4.077,-6.011 1.726,-2.2 3.517,-3.665 5.318,-4.35 1.457,-0.575 3.643,-0.867 6.497,-0.867 3.141,0 5.335,0.344 6.709,1.052 1.787,0.916 3.392,2.794 4.91,5.744 1.21,2.375 2.158,4.668 2.894,7.004 1.01,3.027 1.522,5.68 1.522,7.884 0,2.775 -0.728,4.997 -2.162,6.605" /></g></g></g></g></svg>