<?xml version="1.0" encoding="UTF-8" standalone="no"?>
<svg
   xmlns:dc="http://purl.org/dc/elements/1.1/"
   xmlns:cc="http://creativecommons.org/ns#"
   xmlns:rdf="http://www.w3.org/1999/02/22-rdf-syntax-ns#"
   xmlns:svg="http://www.w3.org/2000/svg"
   xmlns="http://www.w3.org/2000/svg"
   viewBox="0 0 1073.6212 765.35999"
   height="765.35999"
   width="1073.6212"
   xml:space="preserve"
   version="1.1"
   id="svg2"><metadata
     id="metadata8"><rdf:RDF><cc:Work
         rdf:about=""><dc:format>image/svg+xml</dc:format><dc:type
           rdf:resource="http://purl.org/dc/dcmitype/StillImage" /></cc:Work></rdf:RDF></metadata><defs
     id="defs6"><clipPath
       id="clipPath16"
       clipPathUnits="userSpaceOnUse"><path
         id="path18"
         d="m 0,612.288 858.897,0 L 858.897,0 0,0 0,612.288 Z" /></clipPath></defs><g
     transform="matrix(1.25,0,0,-1.25,0,765.36)"
     id="g10"><g
       id="g12"><g
         clip-path="url(#clipPath16)"
         id="g14"><g
           transform="translate(440.5957,309.9687)"
           id="g20"><path
             id="path22"
             style="fill:#ffffff;fill-opacity:1;fill-rule:nonzero;stroke:none"
             d="m 0,0 c -2.221,-3.989 -3.59,-6.833 -4.074,-8.46 -0.453,-1.647 -0.683,-3.131 -0.682,-4.394 -0.033,-0.986 -0.521,-1.604 -1.494,-1.888 l -0.848,-0.049 c -0.152,-0.01 -0.347,-0.009 -0.549,-0.03 l -3.247,0 0.115,9.108 c 1.191,0.764 2.504,1.753 4.111,3.1 0.234,0.205 0.448,0.428 0.656,0.646 l 0.285,0.295 c 1.728,1.771 2.426,3.303 2.092,4.464 C -3.688,3.39 -3.867,3.855 -4.112,4.093 -4.451,4.527 -4.886,4.778 -5.402,4.839 -6.285,4.945 -7.355,4.483 -8.705,3.408 -9.282,2.884 -9.734,2.344 -10.08,1.767 c -0.709,-1.13 -1.197,-2.352 -1.472,-3.692 -0.848,2.628 -1.829,4.098 -2.974,4.469 -0.345,0.188 -0.699,0.288 -1.028,0.288 -0.802,0 -1.446,-0.211 -1.895,-0.612 -0.563,-0.459 -0.848,-1.05 -0.848,-1.757 0,-1.698 1,-3.195 2.972,-4.451 0.893,-0.569 2.084,-1.166 3.545,-1.78 l -0.114,-9.053 -2.664,0 c -0.571,0 -1.051,0.04 -1.495,0.083 l -0.072,0 c -0.395,0.086 -1.381,0.4 -1.386,2.94 -0.465,3.002 -2.04,6.671 -4.685,10.913 -2.39,3.684 -3.192,6.902 -2.382,9.563 0.812,2.672 3.286,4.909 7.31,6.636 4.65,1.522 9.383,1.086 14.016,-1.267 C -0.055,11.862 1.613,9.443 1.854,6.615 2.201,4.414 1.588,2.205 0,0" /></g><g
           transform="translate(434.6992,288.1699)"
           id="g24"><path
             id="path26"
             style="fill:#ffffff;fill-opacity:1;fill-rule:nonzero;stroke:none"
             d="m 0,0 -1.633,0 -0.017,0 -9.489,0 c -0.132,0.122 -0.181,0.217 -0.181,0.27 10e-4,0.03 0.022,0.195 0.422,0.489 0.119,0.088 0.193,0.224 0.202,0.373 0.009,0.148 -0.049,0.293 -0.158,0.394 -0.353,0.33 -0.486,0.681 0.012,1.323 0.133,0.171 0.141,0.408 0.019,0.587 -0.237,0.349 -0.335,0.634 -0.268,0.781 0.036,0.079 0.236,0.349 1.247,0.474 2.928,0.127 5.651,0.076 8.306,-0.163 0.285,-0.036 0.54,-0.072 0.79,-0.107 l 0.353,-0.022 c 0.067,0 0.208,0 0.221,-0.003 C 0.018,4.316 0.133,4.219 0.167,4.107 0.226,3.915 0.11,3.577 -0.148,3.18 -0.248,3.026 -0.258,2.832 -0.172,2.672 0.075,2.207 0.089,1.803 -0.129,1.398 -0.226,1.219 -0.203,0.998 -0.072,0.841 -0.004,0.759 0.203,0.51 0.234,0.324 0.259,0.192 0.279,0.077 0,0" /></g><g
           transform="translate(423.4624,291.0752)"
           id="g28"><path
             id="path30"
             style="fill:#4a4848;fill-opacity:1;fill-rule:nonzero;stroke:none"
             d="m 0,0 c -0.12,0 -0.226,0.087 -0.246,0.21 -0.023,0.136 0.07,0.265 0.206,0.287 L 10.635,2.241 C 10.767,2.259 10.899,2.171 10.922,2.034 10.944,1.898 10.852,1.77 10.715,1.747 L 0.041,0.003 C 0.027,0.001 0.014,0 0,0 m 0.042,-1.994 c -0.122,0 -0.228,0.089 -0.247,0.212 -0.021,0.136 0.073,0.264 0.209,0.285 l 11.465,1.745 c 0.134,0.019 0.264,-0.073 0.284,-0.209 0.021,-0.137 -0.073,-0.265 -0.21,-0.285 L 0.08,-1.991 C 0.067,-1.993 0.054,-1.994 0.042,-1.994 m -0.125,-1.661 c -0.122,0 -0.229,0.09 -0.247,0.215 -0.02,0.136 0.076,0.262 0.212,0.282 l 11.63,1.661 c 0.137,0.022 0.264,-0.075 0.283,-0.212 0.02,-0.137 -0.076,-0.263 -0.212,-0.282 l -11.63,-1.661 c -0.012,-0.002 -0.024,-0.003 -0.036,-0.003" /></g><g
           transform="translate(428.7568,305.3135)"
           id="g32"><path
             id="path34"
             style="fill:#4a4848;fill-opacity:1;fill-rule:nonzero;stroke:none"
             d="m 0,0 c -1.205,0.523 -2.194,1.03 -2.949,1.511 -1.689,1.074 -2.509,2.255 -2.509,3.607 0,0.403 0.152,0.715 0.497,0.997 0.273,0.243 0.704,0.372 1.246,0.372 0.169,0 0.375,-0.065 0.582,-0.183 0.034,-0.02 0.071,-0.035 0.109,-0.047 C -2.401,6.077 -1.185,5.021 0,0 m 1.021,0.114 c 0.022,2.224 0.541,4.115 1.59,5.785 0.3,0.5 0.691,0.966 1.17,1.403 1.227,0.975 1.975,1.207 2.409,1.207 0.047,0 0.089,-0.002 0.129,-0.007 C 6.568,8.473 6.765,8.354 6.98,8.086 7.067,8 7.173,7.764 7.226,7.268 7.47,6.397 6.837,5.157 5.401,3.686 L 5.104,3.379 C 4.917,3.183 4.724,2.979 4.521,2.801 3.177,1.676 2.045,0.807 1.021,0.114 M 11.839,4.655 C 9.618,0.666 8.249,-2.178 7.765,-3.805 7.312,-5.452 7.082,-6.936 7.083,-8.198 7.05,-9.185 6.562,-9.803 5.589,-10.087 l -0.848,-0.049 c -0.152,-0.01 -0.347,-0.009 -0.55,-0.03 l -3.246,0 0.115,9.108 c 1.191,0.764 2.503,1.753 4.111,3.1 0.234,0.205 0.448,0.429 0.656,0.646 L 6.112,2.983 C 7.84,4.754 8.538,6.286 8.204,7.447 8.15,8.045 7.972,8.511 7.727,8.748 7.388,9.183 6.953,9.434 6.437,9.494 5.554,9.601 4.483,9.139 3.134,8.063 2.557,7.539 2.104,6.999 1.759,6.422 1.05,5.292 0.562,4.07 0.287,2.73 -0.561,5.358 -1.542,6.828 -2.687,7.199 -3.032,7.388 -3.386,7.487 -3.715,7.487 -4.518,7.487 -5.161,7.276 -5.61,6.875 -6.173,6.416 -6.458,5.825 -6.458,5.118 c 0,-1.698 1,-3.195 2.972,-4.451 0.893,-0.568 2.084,-1.166 3.545,-1.779 l -0.114,-9.054 -2.664,0 c -0.572,0 -1.052,0.04 -1.495,0.083 l -0.073,0 c -0.394,0.086 -1.38,0.4 -1.385,2.94 -0.465,3.002 -2.04,6.671 -4.685,10.914 -2.391,3.683 -3.192,6.901 -2.382,9.562 0.812,2.672 3.285,4.909 7.31,6.637 4.65,1.521 9.383,1.086 14.016,-1.268 3.197,-2.184 4.865,-4.603 5.105,-7.431 C 14.04,9.069 13.427,6.86 11.839,4.655 m 2.846,6.736 c -0.26,3.067 -2.122,5.804 -5.588,8.17 -4.936,2.51 -9.928,2.968 -14.878,1.342 -4.35,-1.863 -7.012,-4.312 -7.915,-7.279 -0.899,-2.956 -0.058,-6.455 2.495,-10.391 2.569,-4.119 4.097,-7.661 4.534,-10.452 0,-2.802 1.211,-3.642 2.227,-3.853 0.033,-0.007 0.067,-0.011 0.101,-0.011 l 0.074,0.003 c 0.394,-0.04 0.926,-0.086 1.546,-0.086 l 6.932,0 0.005,0 c 0.011,0 0.023,0 0.035,0.001 l 0.514,0.029 c 0.103,-0.001 0.197,-0.01 0.284,-0.023 0.058,-0.011 0.119,-0.01 0.178,0.003 0.082,0.016 0.157,0.024 0.227,0.032 0.113,0.014 0.221,0.027 0.327,0.054 0.011,0.003 0.023,0.006 0.033,0.008 1.435,0.401 2.218,1.379 2.266,2.847 0,1.19 0.218,2.584 0.644,4.135 0.454,1.526 1.832,4.379 3.955,8.199 1.716,2.378 2.39,4.836 2.004,7.272" /></g><g
           transform="translate(434.6992,288.1699)"
           id="g36"><path
             id="path38"
             style="fill:#4a4848;fill-opacity:1;fill-rule:nonzero;stroke:none"
             d="m 0,0 -1.633,0 -0.017,0 -9.489,0 c -0.132,0.122 -0.181,0.217 -0.181,0.27 10e-4,0.03 0.022,0.195 0.422,0.489 0.119,0.088 0.193,0.224 0.202,0.373 0.009,0.148 -0.049,0.293 -0.158,0.394 -0.353,0.33 -0.486,0.681 0.012,1.323 0.133,0.171 0.141,0.408 0.019,0.587 -0.237,0.349 -0.335,0.634 -0.268,0.781 0.036,0.079 0.236,0.349 1.247,0.474 2.928,0.127 5.651,0.076 8.306,-0.163 0.285,-0.036 0.54,-0.072 0.79,-0.107 l 0.353,-0.022 c 0.067,0 0.208,0 0.221,-0.003 C 0.018,4.316 0.133,4.219 0.167,4.107 0.226,3.915 0.11,3.577 -0.148,3.18 -0.248,3.026 -0.258,2.832 -0.172,2.672 0.075,2.207 0.089,1.803 -0.129,1.398 -0.226,1.219 -0.203,0.998 -0.072,0.841 -0.004,0.759 0.203,0.51 0.234,0.324 0.259,0.192 0.279,0.077 0,0 m -3.749,-1.842 c -0.036,-0.008 -0.07,-0.02 -0.105,-0.036 0,-0.001 -10e-4,-0.001 -0.003,-0.001 -0.384,-0.076 -0.854,-0.115 -1.398,-0.115 -0.453,0 -0.845,0 -1.126,0.027 -0.092,0.023 -0.173,0.035 -0.249,0.047 -0.042,0.007 -0.081,0.01 -0.12,0.023 -0.02,0.006 -0.041,0.012 -0.062,0.016 0,0.001 0,0.001 -10e-4,0.001 l 0,0 c -0.014,0.003 -0.028,0.005 -0.041,0.007 -0.691,0.1 -1.521,0.332 -1.939,0.873 l 6.445,0 C -2.557,-1.328 -2.957,-1.642 -3.749,-1.842 M 1.219,0.496 C 1.174,0.771 1.038,1.02 0.889,1.23 1.084,1.758 1.064,2.317 0.836,2.876 1.16,3.451 1.256,3.964 1.123,4.4 1.037,4.681 0.81,5.067 0.18,5.331 -0.022,5.399 -0.238,5.399 -0.395,5.399 L -0.492,5.395 -0.608,5.411 c -0.255,0.036 -0.514,0.072 -0.824,0.111 -2.717,0.243 -5.485,0.3 -8.494,0.165 -1.137,-0.139 -1.815,-0.485 -2.075,-1.057 -0.19,-0.418 -0.133,-0.906 0.168,-1.457 -0.519,-0.837 -0.354,-1.501 -0.059,-1.957 -0.284,-0.299 -0.424,-0.609 -0.427,-0.938 -0.004,-0.424 0.231,-0.82 0.696,-1.175 0.087,-0.067 0.194,-0.103 0.304,-0.103 l 1.397,0 c 0.244,-0.671 0.884,-1.451 2.493,-1.787 0.117,-0.564 0.624,-1.121 2.174,-1.121 0.491,0 0.935,0.084 1.386,0.284 0.385,0.239 0.619,0.545 0.701,0.91 0.999,0.325 1.641,0.901 1.915,1.714 l 1.315,0 c 0.038,0 0.075,0.005 0.112,0.013 0.777,0.18 1.178,0.751 1.045,1.483" /></g><g
           transform="translate(440.2031,316.2578)"
           id="g40"><path
             id="path42"
             style="fill:#4a4848;fill-opacity:1;fill-rule:nonzero;stroke:none"
             d="m 0,0 c -0.1,0.165 -0.281,0.504 -0.582,1.187 -0.002,0.003 -0.003,0.006 -0.004,0.009 -0.65,1.396 -0.982,2.087 -1.183,2.364 -0.18,0.317 -0.578,0.836 -1.26,1.698 -0.723,0.839 -0.72,1.134 -0.73,1.138 0.01,0.007 0.072,0.05 0.312,0.1 0.023,0.008 0.543,0.164 2.455,-2.184 C -0.197,3.177 0.205,2.016 0.205,0.861 0.205,0.298 0.103,0.082 0,0 M -0.195,4.914 C -1.875,6.979 -2.949,7.733 -3.703,7.459 -4.354,7.341 -4.6,7.007 -4.69,6.749 -4.881,6.212 -4.602,5.551 -3.799,4.622 c 0.608,-0.769 1.014,-1.299 1.19,-1.601 0.183,-0.257 0.578,-1.091 1.115,-2.242 0.689,-1.566 0.935,-1.831 1.326,-1.831 0.514,0 1.373,0.249 1.373,1.913 0,1.364 -0.464,2.718 -1.4,4.053" /></g></g></g></g></svg>