<?xml version="1.0" encoding="UTF-8" standalone="no"?>
<svg
   xmlns:dc="http://purl.org/dc/elements/1.1/"
   xmlns:cc="http://creativecommons.org/ns#"
   xmlns:rdf="http://www.w3.org/1999/02/22-rdf-syntax-ns#"
   xmlns:svg="http://www.w3.org/2000/svg"
   xmlns="http://www.w3.org/2000/svg"
   viewBox="0 0 1000 1000"
   height="1000"
   width="1000"
   xml:space="preserve"
   version="1.1"
   id="svg2"><metadata
     id="metadata8"><rdf:RDF><cc:Work
         rdf:about=""><dc:format>image/svg+xml</dc:format><dc:type
           rdf:resource="http://purl.org/dc/dcmitype/StillImage" /></cc:Work></rdf:RDF></metadata><defs
     id="defs6"><clipPath
       id="clipPath16"
       clipPathUnits="userSpaceOnUse"><path
         id="path18"
         d="M 0,800 800,800 800,0 0,0 0,800 Z" /></clipPath></defs><g
     transform="matrix(1.25,0,0,-1.25,0,1000)"
     id="g10"><g
       id="g12"><g
         clip-path="url(#clipPath16)"
         id="g14"><g
           transform="translate(355.9307,390.959)"
           id="g20"><path
             id="path22"
             style="fill:#ffffff;fill-opacity:1;fill-rule:nonzero;stroke:none"
             d="m 0,0 c 14.833,-20.416 35.365,-33.365 57.432,-38.867 l 0,-33.354 90.682,6.27 2.263,50.138 c 5.131,4.653 9.893,9.917 14.177,15.813 l 0,34.823 L 0,34.823 0,0 Z" /></g><g
           transform="translate(359.4307,392.1064)"
           id="g24"><path
             id="path26"
             style="fill:#383435;fill-opacity:1;fill-rule:nonzero;stroke:none"
             d="m 0,0 c 13.708,-18.443 32.626,-31.096 54.778,-36.618 1.56,-0.39 2.654,-1.79 2.654,-3.397 l 0,-29.603 83.827,5.796 2.122,47.02 c 0.042,0.932 0.454,1.808 1.145,2.435 4.773,4.328 9.152,9.157 13.028,14.368 l 0,30.175 L 0,30.176 0,0 Z m 53.932,-76.868 c -0.884,0 -1.739,0.334 -2.388,0.941 -0.71,0.662 -1.112,1.589 -1.112,2.559 l 0,30.654 C 27.446,-36.36 7.863,-22.743 -6.332,-3.205 -6.766,-2.606 -7,-1.887 -7,-1.147 l 0,34.823 c 0,1.933 1.567,3.5 3.5,3.5 l 164.554,0 c 1.932,0 3.5,-1.567 3.5,-3.5 l 0,-34.823 c 0,-0.74 -0.235,-1.459 -0.669,-2.058 -4.031,-5.548 -8.593,-10.707 -13.576,-15.355 l -2.199,-48.697 c -0.08,-1.776 -1.48,-3.211 -3.255,-3.333 l -90.682,-6.269 c -0.08,-0.006 -0.161,-0.009 -0.241,-0.009" /></g><g
           transform="translate(520.541,513.8491)"
           id="g28"><path
             id="path30"
             style="fill:#ffffff;fill-opacity:1;fill-rule:nonzero;stroke:none"
             d="m 0,0 c 0,9.499 -7.772,38.039 -17.271,38.039 l -20.197,0 c -9.5,0 -17.271,-7.772 -17.271,-17.271 l 0,-59.002 0,-27.342 0,-11.1 -106.735,0 c -2.373,0 -4.318,-1.943 -4.318,-4.317 l 0,-0.659 c 0,-2.375 1.945,-4.318 4.318,-4.318 l 157.156,0 c 1.959,0 3.602,1.329 4.127,3.124 l 0.191,0 0,1.194 0,0.659 0,15.417 0,27.342" /></g><g
           transform="translate(516.2227,424.3789)"
           id="g32"><path
             id="path34"
             style="fill:#383435;fill-opacity:1;fill-rule:nonzero;stroke:none"
             d="m 0,0 -157.156,0 c -4.31,0 -7.818,3.507 -7.818,7.818 l 0,0.66 c 0,4.31 3.508,7.816 7.818,7.816 l 103.235,0 0,93.944 c 0,11.453 9.318,20.771 20.772,20.771 l 20.196,0 c 13.21,0 20.771,-32.645 20.771,-41.539 0,-1.933 -1.567,-3.5 -3.5,-3.5 -1.932,0 -3.5,1.567 -3.5,3.5 0,4.157 -1.813,13.28 -4.849,21.35 -3.924,10.432 -7.552,13.189 -8.922,13.189 l -20.196,0 c -7.594,0 -13.772,-6.177 -13.772,-13.771 l 0,-97.444 c 0,-1.933 -1.567,-3.5 -3.5,-3.5 l -106.735,0 c -0.443,0 -0.818,-0.374 -0.818,-0.816 l 0,-0.66 c 0,-0.443 0.375,-0.818 0.818,-0.818 L 0,7 C 0.405,7 0.683,7.314 0.768,7.605 0.783,7.66 0.8,7.713 0.818,7.766 l 0,43.47 c 0,1.933 1.568,3.5 3.5,3.5 1.933,0 3.5,-1.567 3.5,-3.5 l 0,-44.612 C 7.818,5.757 7.503,4.964 6.981,4.353 5.677,1.735 2.973,0 0,0" /></g><g
           transform="translate(371.7031,595.8354)"
           id="g36"><path
             id="path38"
             style="fill:#383435;fill-opacity:1;fill-rule:nonzero;stroke:none"
             d="m 0,0 c -0.94,0 -1.884,0.031 -2.832,0.093 -11.264,0.74 -21.564,5.823 -29.004,14.311 -5.278,6.019 -7.074,14.753 -5.195,25.257 3.076,17.197 15.769,36.248 28.897,43.371 1.699,0.921 3.824,0.292 4.746,-1.408 0.921,-1.699 0.291,-3.824 -1.408,-4.746 -11.277,-6.117 -22.647,-23.366 -25.345,-38.45 -1.039,-5.812 -1.264,-13.898 3.568,-19.41 6.208,-7.082 14.802,-11.322 24.2,-11.94 9.396,-0.62 18.475,2.461 25.557,8.669 14.617,12.817 16.085,35.137 3.27,49.755 -1.275,1.454 -1.129,3.665 0.324,4.939 1.454,1.276 3.665,1.129 4.94,-0.324 C 47.076,52.597 45.317,25.845 27.798,10.483 20.023,3.669 10.244,0 0,0" /></g><g
           transform="translate(359.2017,489.9331)"
           id="g40"><path
             id="path42"
             style="fill:#383435;fill-opacity:1;fill-rule:nonzero;stroke:none"
             d="M 0,0 21.23,-0.121 13.651,24.571 1.066,1.653 C 0.748,1.073 0.391,0.521 0,0 m -23.095,-171.274 c -1.766,0 -3.428,0.528 -4.887,1.567 -5.98,4.257 -7.298,16.287 -8.694,29.022 -0.601,5.482 -1.169,10.666 -2.08,14.592 l -30.825,88.106 c -0.04,0.114 -0.074,0.231 -0.102,0.35 -0.409,1.73 -0.698,3.509 -0.86,5.296 -0.937,2.445 -1.404,4.978 -1.389,7.538 0.038,6.877 3.457,13.283 9.628,18.039 0.553,0.426 1.121,0.833 1.704,1.222 l -8.759,0.036 c -9.413,0.039 -9.367,11.9 -9.344,17.6 0.007,1.928 1.573,3.486 3.499,3.486 l 0.015,0 c 1.933,-0.008 3.493,-1.58 3.486,-3.514 -0.01,-2.612 -0.042,-10.562 2.373,-10.572 l 57.019,-0.23 c 0.46,-0.014 0.945,0.045 1.411,0.141 0.124,0.026 0.249,0.045 0.375,0.056 2.312,0.22 4.351,1.55 5.455,3.56 L 11.5,35.197 c 0.678,1.232 2.031,1.939 3.425,1.797 1.399,-0.143 2.576,-1.11 2.989,-2.455 L 29.32,-2.621 c 0.327,-1.064 0.127,-2.221 -0.537,-3.115 -0.665,-0.894 -1.679,-1.4 -2.829,-1.411 l -66.441,0.377 c -6.652,0.08 -12.861,-1.929 -17.544,-5.539 -4.424,-3.409 -6.875,-7.861 -6.901,-12.534 -0.011,-1.809 0.349,-3.61 1.069,-5.351 0.141,-0.342 0.227,-0.703 0.255,-1.072 0.117,-1.547 0.352,-3.089 0.697,-4.587 l 30.824,-88.104 c 0.04,-0.115 0.074,-0.231 0.102,-0.349 1.034,-4.367 1.633,-9.831 2.267,-15.616 1.002,-9.135 2.373,-21.646 5.795,-24.082 0.267,-0.19 0.618,-0.375 1.396,-0.2 2.973,0.678 6.697,4.213 9.963,9.456 6.105,9.803 9.338,22.974 7.522,30.636 l -18.121,76.495 c -0.248,1.044 -0.002,2.145 0.666,2.985 0.664,0.835 1.673,1.321 2.74,1.321 l 0.02,0 92.629,-0.525 c 6.611,-0.048 12.86,1.928 17.543,5.538 4.425,3.41 6.876,7.861 6.902,12.534 0.009,1.577 -0.267,3.161 -0.823,4.709 -0.21,0.587 -0.26,1.22 -0.143,1.832 0.738,3.905 0.524,7.803 -0.638,11.585 l -29.73,96.874 c -1.899,6.187 -6.119,11.278 -11.882,14.334 -5.764,3.058 -12.346,3.694 -18.533,1.796 L 22.843,101.455 C 14.275,98.826 7.883,91.71 6.121,82.861 5.977,81.082 4.925,69.24 1.573,56.501 -3.425,37.509 -10.919,26.327 -20.704,23.266 c -20.294,-6.35 -42.473,-4.199 -45.011,-3.926 -6.451,-0.021 -12.972,-2.583 -12.982,-5.123 -0.009,-1.928 -1.574,-3.485 -3.5,-3.485 l -0.015,0 c -1.933,0.008 -3.494,1.582 -3.485,3.515 0.009,2.341 1.02,6.708 7.672,9.654 3.541,1.568 8.097,2.452 12.52,2.439 0.13,0 0.26,-0.008 0.389,-0.023 0.223,-0.025 22.671,-2.518 42.323,3.63 15.068,4.714 20.954,40.325 21.95,53.649 0.01,0.133 0.028,0.265 0.053,0.396 2.198,11.489 10.466,20.745 21.579,24.155 l 12.746,3.911 c 7.973,2.447 16.45,1.63 23.865,-2.304 7.416,-3.932 12.848,-10.49 15.295,-18.464 l 29.729,-96.873 c 1.387,-4.515 1.724,-9.342 0.984,-14.021 0.629,-2.033 0.941,-4.114 0.929,-6.199 -0.039,-6.877 -3.458,-13.284 -9.629,-18.039 -5.912,-4.557 -13.682,-7.075 -21.855,-6.994 l -88.178,0.5 17.095,-72.162 c 2.65,-11.185 -2.492,-26.476 -8.393,-35.95 -3.083,-4.95 -8.074,-11.15 -14.348,-12.58 -0.72,-0.165 -1.43,-0.246 -2.124,-0.246" /></g></g></g></g></svg>