<?xml version="1.0" encoding="UTF-8" standalone="no"?>
<svg
   xmlns:dc="http://purl.org/dc/elements/1.1/"
   xmlns:cc="http://creativecommons.org/ns#"
   xmlns:rdf="http://www.w3.org/1999/02/22-rdf-syntax-ns#"
   xmlns:svg="http://www.w3.org/2000/svg"
   xmlns="http://www.w3.org/2000/svg"
   viewBox="0 0 1073.6212 765.35999"
   height="765.35999"
   width="1073.6212"
   xml:space="preserve"
   version="1.1"
   id="svg2"><metadata
     id="metadata8"><rdf:RDF><cc:Work
         rdf:about=""><dc:format>image/svg+xml</dc:format><dc:type
           rdf:resource="http://purl.org/dc/dcmitype/StillImage" /></cc:Work></rdf:RDF></metadata><defs
     id="defs6"><clipPath
       id="clipPath16"
       clipPathUnits="userSpaceOnUse"><path
         id="path18"
         d="m 0,612.288 858.897,0 L 858.897,0 0,0 0,612.288 Z" /></clipPath></defs><g
     transform="matrix(1.25,0,0,-1.25,0,765.36)"
     id="g10"><g
       id="g12"><g
         clip-path="url(#clipPath16)"
         id="g14"><g
           transform="translate(437.3437,320.603)"
           id="g20"><path
             id="path22"
             style="fill:#ffffff;fill-opacity:1;fill-rule:nonzero;stroke:none"
             d="m 0,0 -1.312,-1.276 -2.761,0 -0.642,1.014 c -0.092,0.144 -0.252,0.232 -0.423,0.232 l -3.198,0 c -0.265,0 -0.483,-0.206 -0.499,-0.47 l -0.1,-1.673 c -0.811,-0.114 -1.651,-0.186 -2.599,-0.224 -0.943,0 -1.802,0.071 -2.613,0.218 l -0.347,1.59 c -0.049,0.229 -0.253,0.393 -0.488,0.393 l -3.074,0 c -0.185,0 -0.356,-0.103 -0.442,-0.267 l -0.69,-1.311 -2.998,0 -1.517,1.344 0,2.004 1.194,1.965 3.195,0 0.401,-1.537 c 0.058,-0.22 0.256,-0.374 0.484,-0.374 l 3.115,0 c 0.147,0 0.287,0.065 0.382,0.178 0.949,1.124 1.947,1.715 2.968,1.754 1.177,0.044 2.481,-0.638 3.854,-2.031 0.094,-0.096 0.222,-0.15 0.356,-0.15 l 1.91,0 c 0.16,0 0.312,0.078 0.406,0.208 l 1.153,1.6 2.95,0.251 1.341,-1.305 C 0.278,1.442 0.277,0.76 0,0" /></g><g
           transform="translate(437.0078,300.5937)"
           id="g24"><path
             id="path26"
             style="fill:#ffffff;fill-opacity:1;fill-rule:nonzero;stroke:none"
             d="m 0,0 c 0.072,1.12 -0.207,2.358 -0.819,3.618 -0.81,1.715 -2.869,2.241 -6.12,1.564 -0.088,-0.019 -0.17,-0.061 -0.236,-0.122 -2.45,-2.256 -5.15,-2.245 -8.255,0.035 -0.086,0.063 -0.189,0.097 -0.296,0.097 l -6.104,0 0,6.31 6.021,0 c 0.264,0 0.482,0.206 0.499,0.469 l 0.137,2.149 8.002,0 0,-1.785 c 0,-0.276 0.224,-0.5 0.5,-0.5 l 5.456,10e-4 C 1.006,11.719 2.773,10.764 4.195,8.908 5.855,6.832 6.674,3.837 6.63,0 L 0,0 Z" /></g><g
           transform="translate(437.3437,320.603)"
           id="g28"><path
             id="path30"
             style="fill:#4a4848;fill-opacity:1;fill-rule:nonzero;stroke:none"
             d="m 0,0 -1.312,-1.276 -2.761,0 -0.642,1.014 c -0.092,0.144 -0.252,0.232 -0.423,0.232 l -3.198,0 c -0.265,0 -0.483,-0.206 -0.499,-0.47 l -0.1,-1.673 c -0.811,-0.114 -1.651,-0.186 -2.599,-0.224 -0.943,0 -1.802,0.071 -2.613,0.218 l -0.347,1.59 c -0.049,0.229 -0.253,0.393 -0.488,0.393 l -3.074,0 c -0.185,0 -0.356,-0.103 -0.442,-0.267 l -0.69,-1.311 -2.998,0 -1.517,1.344 0,2.004 1.194,1.965 3.195,0 0.401,-1.537 c 0.058,-0.22 0.256,-0.374 0.484,-0.374 l 3.115,0 c 0.147,0 0.287,0.065 0.382,0.178 0.949,1.124 1.947,1.715 2.968,1.754 1.177,0.044 2.481,-0.638 3.854,-2.031 0.094,-0.096 0.222,-0.15 0.356,-0.15 l 1.91,0 c 0.16,0 0.312,0.078 0.406,0.208 l 1.153,1.6 2.95,0.251 1.341,-1.305 C 0.278,1.442 0.277,0.76 0,0 M 0.888,2.616 C 0.861,2.677 0.824,2.731 0.777,2.777 l -1.578,1.537 c -0.103,0.101 -0.244,0.147 -0.391,0.14 L -4.599,4.163 C -4.744,4.151 -4.877,4.076 -4.961,3.958 L -6.1,2.379 l -1.447,0 c -1.527,1.502 -3.038,2.239 -4.456,2.18 -1.254,-0.049 -2.444,-0.698 -3.539,-1.931 l -2.501,0 -0.401,1.537 c -0.057,0.22 -0.256,0.374 -0.484,0.374 l -3.863,0 c -0.174,0 -0.336,-0.091 -0.427,-0.241 L -24.63,1.973 c -0.048,-0.078 -0.073,-0.168 -0.073,-0.26 l 0,-2.368 c 0,-0.143 0.061,-0.279 0.168,-0.374 l 1.828,-1.619 c 0.091,-0.081 0.209,-0.126 0.332,-0.126 l 3.489,0 c 0.185,0 0.356,0.103 0.442,0.267 l 0.69,1.311 2.369,0 0.331,-1.517 c 0.042,-0.193 0.193,-0.343 0.386,-0.383 0.971,-0.202 1.994,-0.301 3.147,-0.301 l 0.007,0 c 1.163,0.046 2.158,0.141 3.133,0.296 0.231,0.038 0.405,0.23 0.42,0.464 l 0.096,1.607 2.453,0 0.641,-1.014 c 0.092,-0.144 0.251,-0.232 0.423,-0.232 l 3.24,0 c 0.129,0 0.254,0.05 0.348,0.142 l 1.537,1.495 c 0.051,0.05 0.09,0.11 0.117,0.176 0.422,1.078 0.42,2.085 -0.006,3.079" /></g><g
           transform="translate(443.7637,291.7295)"
           id="g32"><path
             id="path34"
             style="fill:#4a4848;fill-opacity:1;fill-rule:nonzero;stroke:none"
             d="m 0,0 c -0.078,-0.352 -0.148,-0.594 -0.241,-0.818 -0.034,-0.055 -0.056,-0.108 -0.07,-0.15 -0.009,-0.014 -0.017,-0.03 -0.025,-0.046 -0.483,-1.004 -1.252,-1.651 -2.322,-1.973 -0.642,-0.152 -1.397,-0.15 -2.233,0.003 -1.783,0.379 -2.827,1.239 -3.185,2.595 -0.215,1.115 0.279,2.401 1.465,3.815 0.297,0.34 0.593,0.678 0.864,1.029 1.118,1.227 1.914,2.254 2.374,3.065 0.31,-0.137 0.651,-0.391 1.021,-0.761 C -1.264,5.71 -0.52,4.399 -0.085,2.783 0.119,1.76 0.146,0.842 0,0 m -6.756,8.864 c 0.072,1.12 -0.207,2.359 -0.819,3.618 -0.81,1.715 -2.868,2.241 -6.12,1.564 -0.088,-0.019 -0.17,-0.061 -0.236,-0.122 -2.45,-2.256 -5.15,-2.244 -8.255,0.035 -0.085,0.063 -0.189,0.098 -0.295,0.098 l -6.105,0 0,6.31 6.022,0 c 0.263,0 0.481,0.205 0.498,0.468 l 0.137,2.149 8.002,0 0,-1.785 c 0,-0.276 0.224,-0.5 0.5,-0.5 l 5.456,10e-4 c 2.221,-0.117 3.989,-1.072 5.41,-2.928 1.661,-2.076 2.479,-5.071 2.435,-8.908 l -6.63,0 z M 0.889,3.012 C 0.404,4.813 -0.451,6.316 -1.65,7.473 -1.795,7.617 -1.937,7.748 -2.078,7.864 l 2.441,0 c 0.27,0 0.492,0.215 0.5,0.486 0.128,4.314 -0.761,7.694 -2.636,10.038 -1.582,2.065 -3.65,3.179 -6.17,3.311 l -4.984,0 0,1.785 c 0,0.276 -0.223,0.5 -0.5,0.5 l -8.971,0 c -0.264,0 -0.482,-0.205 -0.499,-0.468 l -0.137,-2.149 -6.052,0 c -0.276,0 -0.5,-0.224 -0.5,-0.5 l 0,-7.31 c 0,-0.276 0.224,-0.5 0.5,-0.5 l 6.442,0 c 3.36,-2.405 6.565,-2.393 9.286,0.037 2.66,0.534 4.301,0.183 4.881,-1.043 0.631,-1.297 0.86,-2.541 0.665,-3.596 C -7.84,8.31 -7.8,8.158 -7.705,8.045 -7.61,7.931 -7.469,7.864 -7.32,7.864 l 2.991,0 C -4.68,7.284 -5.324,6.402 -6.511,5.099 -6.795,4.734 -7.079,4.409 -7.371,4.074 -8.766,2.411 -9.333,0.846 -9.051,-0.61 c 0.465,-1.765 1.795,-2.894 3.967,-3.355 0.482,-0.088 0.943,-0.133 1.383,-0.133 0.457,0 0.89,0.049 1.301,0.146 1.347,0.404 2.338,1.232 2.943,2.461 0.039,0.059 0.062,0.117 0.079,0.163 0.013,0.021 0.024,0.043 0.035,0.066 0.128,0.301 0.222,0.604 0.323,1.068 0.172,0.988 0.145,2.026 -0.091,3.206" /></g><g
           transform="translate(441.8975,290.499)"
           id="g36"><path
             id="path38"
             style="fill:#4a4848;fill-opacity:1;fill-rule:nonzero;stroke:none"
             d="m 0,0 c -0.187,-0.124 -0.325,-0.155 -0.393,-0.162 -0.026,0.058 -0.075,0.219 -0.075,0.578 0,0.09 0,0.168 0.026,0.248 0.228,0.887 0.496,1.147 0.634,1.223 C 0.229,1.906 0.273,1.924 0.347,1.924 0.392,1.924 0.445,1.918 0.514,1.9 0.543,1.846 0.591,1.713 0.608,1.495 0.608,0.857 0.382,0.328 0,0 M 0.851,2.842 C 0.447,2.977 0.054,2.949 -0.285,2.764 -0.792,2.488 -1.161,1.883 -1.401,0.947 -1.468,0.746 -1.468,0.562 -1.468,0.416 c 0,-1.375 0.651,-1.58 1.039,-1.58 0.317,0 0.657,0.115 1.03,0.367 0.649,0.55 1.007,1.363 1.005,2.33 C 1.528,2.56 1.062,2.804 0.851,2.842" /></g></g></g></g></svg>